<svg width="128" height="128" viewBox="0 0 128 128" fill="none" xmlns="http://www.w3.org/2000/svg">
<g clip-path="url(#clip0_601_5)">
<path d="M128.256 64C128.256 99.328 99.584 128 64.256 128C28.928 128 0.256012 99.328 0.256012 64C0.256012 28.672 28.928 0 64.256 0C99.584 0 128.256 28.672 128.256 64Z" fill="white"/>
<path d="M70.57 27.648C66.3306 26.9654 62.0094 26.9654 57.77 27.648C57.43 27.648 57.258 27.478 57.6 27.136L64.256 22.016L70.912 27.136C71.082 27.476 70.91 27.648 70.57 27.648ZM59.652 59.392C59.482 59.392 59.312 59.562 59.312 59.732C60.678 60.756 61.532 63.146 64.432 63.146C67.332 63.146 68.186 60.756 69.552 59.732C69.552 59.562 69.382 59.392 69.212 59.392C66.0466 59.9041 62.8174 59.9041 59.652 59.392ZM64.262 55.466C63.408 55.466 63.238 55.126 62.726 55.126C62.046 55.126 61.532 55.466 61.02 55.98C61.02 56.15 61.19 56.32 61.19 56.492C62.384 56.662 62.896 57.346 64.09 57.346C65.284 57.346 65.97 56.666 66.99 56.492C67.16 56.322 67.16 56.152 67.16 55.98C66.648 55.468 66.136 55.3 65.454 55.126C65.284 55.126 65.116 55.466 64.262 55.466ZM128.09 67.586C128.09 69.122 127.92 70.658 127.75 72.194C120.582 73.388 117.85 66.904 110.51 67.244C111.022 68.78 111.364 70.484 111.534 72.024C117.678 72.024 120.068 77.656 126.894 76.974C126.554 78.68 126.04 80.388 125.528 82.094C120.068 82.606 118.188 77.314 112.048 77.486V81.752C117.338 81.752 119.048 86.532 124.168 86.36L122.12 91.48C118.536 91.31 117.17 86.7 111.71 87.04L111.03 90.624C115.81 90.284 116.83 94.72 120.246 95.064C119.392 96.6 118.366 98.304 117.346 99.672C115.298 98.648 113.592 95.232 109.666 95.064L110.69 91.31C106.764 91.14 103.01 89.604 100.11 86.87C101.134 80.726 91.75 74.582 91.75 70.144C91.75 65.364 94.14 62.634 94.14 56.15C93.97 51.03 91.92 46.08 88.34 42.496C87.66 41.816 86.974 41.302 86.12 40.79C89.704 44.716 91.752 49.664 91.92 54.956C91.92 61.1 89.02 64.342 89.02 69.976C89.02 75.61 97.212 80.556 97.212 86.36C97.212 88.58 96.532 90.968 94.14 95.234C97.212 98.474 101.308 100.524 105.746 101.034C106.6 101.204 107.282 100.694 107.626 99.84C107.966 99.16 108.306 98.474 108.48 97.792C111.894 97.962 113.43 101.032 115.306 102.232L112.066 106.158C110.872 104.792 109.166 102.404 106.606 101.718C106.094 102.572 105.752 103.424 105.24 104.278C107.288 104.79 108.824 107.008 109.848 108.374L106.094 111.958C105.24 110.422 104.046 109.228 102.51 108.204C101.998 108.884 101.486 109.57 100.804 110.252C101.998 111.276 103.024 112.472 103.704 113.836L98.924 117.25C98.07 110.764 89.196 106.33 91.584 98.818C90.56 100.354 90.048 102.058 89.878 103.768C89.878 109.228 95.678 113.496 96.192 118.958L92.416 121C92.246 115.026 86.102 108.54 86.102 103.592C86.102 98.132 93.27 92.672 93.27 86.184C93.27 79.696 85.078 75.264 85.078 69.63C85.078 63.996 88.662 60.756 88.662 53.416C88.662 47.956 86.272 42.836 82.176 39.25L79.956 37.714C83.71 42.154 85.756 46.074 85.756 52.22C85.756 59.046 81.83 62.8 81.83 69.46C81.83 76.12 89.85 79.87 89.85 86.014C89.85 92.158 82.34 97.448 82.34 103.934C82.34 109.734 88.996 115.54 88.996 122.534C87.5462 123.177 86.065 123.746 84.558 124.24C85.412 117.24 77.902 110.074 77.902 104.44C77.902 98.126 85.752 92.834 85.752 86.18C85.752 79.526 77.732 76.28 77.732 69.454C77.732 62.628 82.682 58.702 82.682 51.194C82.682 45.562 79.952 40.1 75.514 36.688L75.174 36.518C74.834 36.178 74.494 36.518 74.662 36.858C77.734 40.612 79.442 45.392 79.27 50.17C79.27 57.17 73.638 62.8 73.638 69.456C73.638 77.476 81.148 79.696 81.148 86.182C81.148 92.668 73.128 97.958 73.128 104.956C73.128 111.442 80.808 118.436 79.442 125.948L74.834 126.972C76.2 117.756 68.69 111.1 68.69 105.126C68.69 98.64 77.05 92.838 77.05 86.352C77.05 80.378 71.076 78.332 70.224 72.186C70.224 71.332 69.544 70.82 68.688 70.82H68.518C66.7942 71.3408 65.0216 71.6839 63.228 71.844C61.522 71.674 59.644 71.332 57.938 70.82C57.084 70.65 56.402 71.16 56.232 72.014V72.184C55.378 78.328 49.406 80.376 49.406 86.35C49.406 92.836 57.766 98.638 57.766 105.124C57.766 111.098 50.256 117.754 51.622 126.97L47.014 125.946C45.82 118.606 53.5 111.44 53.5 104.954C53.5 97.954 45.48 92.834 45.48 86.18C45.48 79.526 52.99 77.306 52.99 69.454C52.99 62.628 47.358 56.994 47.358 50.168C47.188 45.388 48.894 40.608 51.966 36.856C52.306 36.516 51.966 36.176 51.454 36.516L51.114 36.686C46.674 40.1 43.946 45.56 43.946 51.192C43.946 58.872 48.896 62.626 48.896 69.452C48.896 76.278 40.876 79.522 40.876 86.178C40.876 92.834 48.726 98.298 48.726 104.438C48.726 110.07 41.216 117.408 42.07 124.238C40.563 123.744 39.0818 123.175 37.632 122.532C37.802 115.706 44.458 109.902 44.458 103.932C44.458 97.446 36.948 92.326 36.948 86.012C36.948 79.698 45.994 76.284 45.994 69.628C45.994 62.972 42.068 59.218 42.068 52.388C42.068 46.244 44.116 42.318 47.868 37.882C47.014 38.222 46.332 38.736 45.648 39.418C41.552 43.002 39.334 48.122 39.162 53.584C39.162 60.752 42.746 64.164 42.746 69.798C42.746 75.432 34.554 80.038 34.554 86.352C34.554 92.666 41.722 98.298 41.722 103.76C41.722 108.71 35.578 115.194 35.408 121.168C34.214 120.488 32.848 119.802 31.654 119.12C32.166 113.66 37.968 109.392 37.968 103.93C37.798 102.224 37.288 100.346 36.262 98.98C38.652 106.49 29.776 110.926 28.922 117.412C27.386 116.388 25.682 115.192 24.142 113.998C24.822 112.632 25.848 111.438 27.042 110.414C26.53 109.734 25.848 109.048 25.336 108.366C23.97 109.39 22.776 110.586 21.752 112.12C20.386 110.926 19.192 109.73 17.998 108.536C19.192 107.17 20.558 104.952 22.606 104.44C22.094 103.586 21.582 102.734 21.24 101.88C18.85 102.56 17.144 104.78 15.78 106.32C14.586 104.954 13.56 103.76 12.54 102.394C14.42 101.2 15.954 98.128 19.366 97.954C19.706 98.634 19.878 99.32 20.22 100.002C20.56 100.856 21.244 101.196 22.1 101.196C26.54 100.684 30.634 98.636 33.706 95.564C31.316 91.124 30.634 88.908 30.634 86.69C30.634 80.89 38.826 75.938 38.826 70.306C38.826 64.674 35.926 61.432 35.926 55.286C36.0949 49.9697 38.1518 44.8873 41.728 40.95C40.874 41.462 40.192 41.974 39.508 42.656C35.924 46.24 33.876 51.19 33.708 56.31C33.708 62.796 36.098 65.526 36.098 70.304C36.098 74.744 26.712 80.884 27.738 87.03C24.838 89.76 21.082 91.296 17.158 91.296L18.182 95.05C14.256 95.22 12.55 98.634 10.502 99.658C9.478 98.122 8.622 96.586 7.602 95.05C11.016 94.71 12.042 90.27 16.818 90.61C16.648 89.416 16.478 88.22 16.138 87.026C10.678 86.686 9.312 91.292 5.728 91.466C4.874 89.76 4.192 88.052 3.68 86.346C8.8 86.516 10.506 81.738 15.8 81.738V77.48C9.486 77.31 7.608 82.6 2.32 82.088C1.808 80.382 1.466 78.674 0.953996 76.968C7.78 77.822 10.17 72.018 16.314 72.018L17.338 67.238C9.998 66.898 7.268 73.382 0.0979956 72.188C-0.0720044 70.652 -0.242004 69.116 -0.242004 67.58C8.118 68.434 11.364 61.606 19.044 62.46C19.724 60.58 20.75 58.876 21.604 57.17C12.044 55.464 8.804 63.484 -0.242004 62.29C0.767996 26.966 30.12 -0.854036 65.45 0.169964C99.41 1.19396 126.72 28.33 127.57 62.29C118.696 63.484 115.282 55.464 105.724 57.17C106.748 58.876 107.43 60.584 108.284 62.46C116.476 61.436 119.718 68.434 128.084 67.58M36.78 40.62C31.66 38.572 26.028 39.254 21.42 42.326C20.74 37.886 18.348 33.966 14.764 31.406C14.6371 31.3229 14.4887 31.2787 14.337 31.2787C14.1853 31.2787 14.0369 31.3229 13.91 31.406C13.74 31.576 13.74 31.746 13.74 31.918C14.42 41.478 8.96 49.838 1.964 57.178C9.132 59.226 15.104 50.178 24.324 53.424C27.564 48.304 31.834 44.038 36.784 40.624M64.264 34.824C58.29 34.824 53.344 38.238 51.976 42.504C51.806 42.844 51.976 43.016 52.316 42.844C53.51 42.332 54.706 42.164 55.9 42.164C58.12 41.994 60.166 43.018 61.7 44.554C62.212 46.602 62.212 48.65 61.7 50.528C60.676 50.358 60.334 49.504 59.31 49.504C58.286 49.504 57.604 50.184 55.896 50.184C54.188 50.184 54.016 49.33 52.996 49.33C51.976 49.33 51.46 50.696 51.46 52.06C51.46 58.716 57.604 67.76 63.92 67.76C70.236 67.76 76.38 58.714 76.38 52.06C76.38 50.524 76.04 49.33 74.674 49.16C73.82 49.84 72.968 50.184 71.944 50.014C70.238 50.014 69.896 49.334 68.872 49.334C67.848 49.334 67.848 51.894 66.482 51.894C65.628 49.504 65.458 46.774 66.312 44.214C67.848 42.508 69.896 41.654 72.112 41.824C73.306 41.824 74.502 41.994 75.696 42.504C76.036 42.674 76.208 42.504 76.036 42.164C75.012 38.238 70.062 34.824 64.26 34.824M73.476 44.384C71.94 44.384 70.404 44.896 69.38 45.92C69.21 46.26 69.21 46.6 69.38 47.114C71.94 46.26 74.16 46.26 75.354 47.454C75.866 47.114 76.034 46.43 76.034 45.918C76.034 44.894 75.18 44.382 73.474 44.382M52.82 47.446C54.014 46.252 56.746 46.252 59.476 47.276C59.646 45.91 57.256 44.376 54.696 44.376C52.99 44.376 52.136 44.888 52.136 45.742C52.136 46.422 52.306 47.108 52.816 47.448M93.78 24.92C89.34 25.26 85.246 26.8 81.834 29.528C83.2 25.774 85.074 22.018 87.294 18.776C81.834 19.116 76.714 21.506 72.614 25.262L69.884 17.922L76.2 12.288L67.666 11.608L64.252 3.75796L60.838 11.608L52.304 12.288L58.618 17.92L55.718 25.43C51.792 21.504 46.672 19.286 41.038 18.944C43.258 22.358 45.134 25.944 46.498 29.696C43.084 26.966 38.818 25.256 34.378 25.088C37.278 28.672 39.668 32.598 41.546 36.694C41.716 37.034 42.226 37.374 42.57 37.206H42.74C49.3721 33.9224 56.6726 32.2141 64.073 32.2141C71.4734 32.2141 78.7739 33.9224 85.406 37.206C85.746 37.376 86.26 37.376 86.43 37.036V36.866C88.478 32.426 90.87 28.506 93.77 24.92M104.01 53.25C113.226 50.01 119.2 59.224 126.37 57.004C119.544 49.664 113.91 41.474 114.594 31.744C114.594 31.404 114.424 31.064 114.082 31.064C113.912 31.064 113.742 31.064 113.57 31.234C109.986 33.794 107.596 37.89 106.914 42.154C102.306 39.082 96.674 38.4 91.554 40.448C96.504 44.032 100.77 48.298 104.014 53.248" fill="#006241"/>
</g>
<defs>
<clipPath id="clip0_601_5">
<rect width="128" height="128" fill="white"/>
</clipPath>
</defs>
</svg>
